<?xml version="1.0" encoding="utf-8"?>
<svg width="36px" height="36px" viewBox="0 0 36 36" version="1.1" xmlns:xlink="http://www.w3.org/1999/xlink" xmlns="http://www.w3.org/2000/svg">
  <g id="Group-6">
    <path d="M0 0L36 0L36 36L0 36L0 0Z" id="Rectangle" fill="none" fill-rule="evenodd" stroke="none" />
    <g id="Group-3" transform="translate(6.584839 1.7832031)">
      <path d="M17.238 5.12424C16.5988 4.94526 15.9359 4.85578 15.2492 4.85577C14.5625 4.85577 13.8996 4.94526 13.2603 5.12424C12.6211 5.30322 12.0239 5.55525 11.4687 5.88033C10.9136 6.20541 10.4095 6.59441 9.95657 7.04733C9.50365 7.50025 9.11465 8.00431 8.78957 8.55951C8.46449 9.1147 8.21246 9.7119 8.03348 10.3511C7.8545 10.9903 7.76501 11.6533 7.76501 12.3399C7.76501 12.9536 7.83807 13.5526 7.98417 14.137C8.13027 14.7214 8.3403 15.2766 8.61424 15.8026C8.88819 16.3286 9.2224 16.8162 9.61688 17.2655C10.0114 17.7147 10.4606 18.1147 10.9647 18.4654L10.9099 18.4654C10.7346 18.4654 10.5848 18.5256 10.4606 18.6462C10.3364 18.7667 10.2743 18.9146 10.2743 19.0899C10.2743 19.2214 10.3072 19.331 10.373 19.4187C10.4387 19.5063 10.5227 19.5812 10.625 19.6433C10.7273 19.7054 10.835 19.7584 10.9483 19.8022C11.0615 19.846 11.1692 19.8899 11.2715 19.9337L11.2606 19.9775C11.1364 20.299 11.0286 20.6113 10.9373 20.9144C10.846 21.2176 10.7693 21.5208 10.7072 21.8239C10.6451 22.1271 10.5976 22.4376 10.5647 22.7553C10.5319 23.0731 10.5154 23.4073 10.5154 23.758C10.5154 24.2401 11.6989 24.4154 11.6989 23.758C11.6989 22.611 11.9144 21.508 12.3454 20.4487L12.3563 20.4158C12.4148 20.4451 12.486 20.4798 12.57 20.5199C12.654 20.5601 12.7399 20.6003 12.8275 20.6405C12.9152 20.6807 12.9992 20.7135 13.0795 20.7391C13.1599 20.7647 13.233 20.7774 13.2987 20.7774C13.4667 20.7774 13.6128 20.7154 13.737 20.5912C13.8612 20.467 13.9233 20.3209 13.9233 20.1529C13.9233 20.0506 13.8977 19.9556 13.8466 19.868C13.7955 19.7803 13.7297 19.7072 13.6493 19.6488C14.1753 19.7584 14.7086 19.8132 15.2492 19.8132C15.9359 19.8132 16.5988 19.7237 17.238 19.5447C17.8772 19.3657 18.4744 19.1155 19.0296 18.7941C19.5848 18.4727 20.0889 18.0837 20.5418 17.6271C20.9947 17.1705 21.3837 16.6664 21.7088 16.1149C22.0339 15.5634 22.2859 14.968 22.4649 14.3288C22.6439 13.6896 22.7334 13.0266 22.7334 12.3399C22.7334 11.6533 22.6439 10.9903 22.4649 10.3511C22.2859 9.7119 22.0339 9.1147 21.7088 8.55951C21.3837 8.00431 20.9947 7.50025 20.5418 7.04733C20.0889 6.59441 19.5848 6.20541 19.0296 5.88033C18.4744 5.55525 17.8772 5.30322 17.238 5.12424L17.238 5.12424Z" id="Path-1" fill="#FAA19B" fill-rule="evenodd" stroke="none" />
      <path d="M12.7945 6.53235C13.5616 6.20361 14.3798 6.03925 15.2491 6.03925C16.1184 6.03925 16.9348 6.20544 17.6982 6.53783C18.4616 6.87021 19.1282 7.32131 19.698 7.89111C20.2678 8.46092 20.7189 9.12752 21.0512 9.89091C21.3836 10.6543 21.5498 11.4707 21.5498 12.34C21.5498 13.2093 21.3836 14.0256 21.0512 14.789C20.7189 15.5524 20.2678 16.219 19.698 16.7888C19.1282 17.3586 18.4616 17.8097 17.6982 18.1421C16.9348 18.4745 16.1184 18.6407 15.2491 18.6407C14.3798 18.6407 13.5634 18.4745 12.8 18.1421C12.0366 17.8097 11.37 17.3586 10.8002 16.7888C10.2304 16.219 9.77933 15.5524 9.44694 14.789C9.11456 14.0256 8.94836 13.2093 8.94836 12.34C8.94836 11.4707 9.11273 10.6525 9.44146 9.88543C9.7702 9.11839 10.2195 8.44996 10.7893 7.88015C11.3591 7.31035 12.0275 6.86108 12.7945 6.53235L12.7945 6.53235Z" id="Path-2" fill="#F44336" fill-rule="evenodd" stroke="none" />
      <path d="M20.4706 11.2607C20.6642 11.0671 20.7609 10.8096 20.7609 10.4881C20.7609 10.2325 20.7007 9.9786 20.5801 9.72657C20.4596 9.47454 20.3007 9.24991 20.1035 9.05267C19.9062 8.85543 19.6816 8.69654 19.4296 8.57601C19.1775 8.45547 18.9237 8.3952 18.668 8.3952C18.3466 8.3952 18.0891 8.492 17.8955 8.68558C17.7019 8.87917 17.6051 9.13668 17.6051 9.45811C17.6051 9.71379 17.6654 9.96765 17.7859 10.2197C17.9064 10.4717 18.0653 10.6963 18.2626 10.8936C18.4598 11.0908 18.6844 11.2497 18.9365 11.3702C19.1885 11.4908 19.4424 11.551 19.698 11.551C20.0195 11.551 20.277 11.4543 20.4706 11.2607L20.4706 11.2607Z" id="Path-3" fill="#FAA19B" fill-rule="evenodd" stroke="none" />
      <path d="M9.47301 0.268466C8.83381 0.089491 8.17086 2.37799e-06 7.48417 0C6.79748 0 6.13454 0.0894886 5.49533 0.268466C4.85613 0.447443 4.25893 0.699472 3.70373 1.02455C3.14854 1.34963 2.64448 1.73864 2.19156 2.19156C1.73864 2.64448 1.34963 3.14854 1.02455 3.70373C0.699473 4.25893 0.447443 4.85613 0.268466 5.49533C0.0894889 6.13454 2.78807e-08 6.79748 2.78807e-08 7.48417C2.78807e-08 8.09781 0.0730521 8.69683 0.219156 9.28125C0.36526 9.86566 0.575284 10.4209 0.849229 10.9468C1.12317 11.4728 1.45739 11.9604 1.85187 12.4097C2.24635 12.859 2.69562 13.2589 3.19968 13.6096L3.14489 13.6096C2.96956 13.6096 2.81981 13.6698 2.69562 13.7904C2.57143 13.9109 2.50933 14.0588 2.50933 14.2342C2.50933 14.3657 2.54221 14.4752 2.60795 14.5629C2.6737 14.6506 2.75771 14.7254 2.85998 14.7875C2.96226 14.8496 3.07001 14.9026 3.18324 14.9464C3.29647 14.9903 3.40422 15.0341 3.50649 15.0779L4.59132 15.5601C4.64976 15.5893 4.72098 15.624 4.80499 15.6642C4.889 15.7043 4.97484 15.7445 5.0625 15.7847C5.15016 15.8249 5.23417 15.8577 5.31453 15.8833C5.39489 15.9089 5.46794 15.9217 5.53369 15.9217C5.7017 15.9217 5.84781 15.8596 5.972 15.7354C6.09619 15.6112 6.15828 15.4651 6.15828 15.2971C6.15828 15.1948 6.13271 15.0998 6.08157 15.0122C6.03044 14.9245 5.96469 14.8515 5.88433 14.793C6.41031 14.9026 6.94359 14.9574 7.48417 14.9574C8.17086 14.9574 8.83381 14.8679 9.47301 14.6889C10.1122 14.5099 10.7094 14.2597 11.2646 13.9383C11.8198 13.6169 12.3239 13.2279 12.7768 12.7713C13.2297 12.3147 13.6187 11.8107 13.9438 11.2591C14.2689 10.7076 14.5209 10.1122 14.6999 9.47301C14.8789 8.83381 14.9683 8.17086 14.9683 7.48417C14.9683 6.79748 14.8789 6.13454 14.6999 5.49533C14.5209 4.85613 14.2689 4.25893 13.9438 3.70373C13.6187 3.14854 13.2297 2.64448 12.7768 2.19156C12.3239 1.73864 11.8198 1.34963 11.2646 1.02455C10.7094 0.699472 10.1122 0.447443 9.47301 0.268466L9.47301 0.268466Z" id="Path-1" fill="#A6D7A8" fill-rule="evenodd" stroke="none" />
      <path d="M5.02966 1.67651C5.7967 1.34778 6.61488 1.18341 7.4842 1.18341C8.35352 1.18341 9.16988 1.3496 9.93327 1.68199C10.6967 2.01438 11.3633 2.46547 11.9331 3.03528C12.5029 3.60508 12.954 4.27168 13.2864 5.03507C13.6187 5.79847 13.7849 6.61482 13.7849 7.48414C13.7849 8.35346 13.6187 9.16982 13.2864 9.93321C12.954 10.6966 12.5029 11.3632 11.9331 11.933C11.3633 12.5028 10.6967 12.9539 9.93327 13.2863C9.16988 13.6187 8.35352 13.7849 7.4842 13.7849C6.61488 13.7849 5.79853 13.6187 5.03514 13.2863C4.27174 12.9539 3.60514 12.5028 3.03534 11.933C2.46553 11.3632 2.01444 10.6966 1.68205 9.93321C1.34966 9.16982 1.18347 8.35346 1.18347 7.48414C1.18347 6.61482 1.34784 5.79664 1.67657 5.0296C2.00531 4.26255 2.45458 3.59413 3.02438 3.02432C3.59419 2.45452 4.26261 2.00525 5.02966 1.67651L5.02966 1.67651Z" id="Path-2" fill="#4CAF50" fill-rule="evenodd" stroke="none" />
      <path d="M12.7056 6.40477C12.8991 6.21118 12.9959 5.95367 12.9959 5.63225C12.9959 5.37656 12.9357 5.12271 12.8151 4.87068C12.6946 4.61865 12.5357 4.39401 12.3385 4.19677C12.1412 3.99953 11.9166 3.84065 11.6646 3.72011C11.4125 3.59957 11.1587 3.53931 10.903 3.53931C10.5816 3.53931 10.3241 3.6361 10.1305 3.82969C9.93688 4.02328 9.84009 4.28078 9.84009 4.60221C9.84009 4.85789 9.90036 5.11175 10.0209 5.36378C10.1414 5.61581 10.3003 5.84044 10.4976 6.03768C10.6948 6.23492 10.9194 6.39381 11.1715 6.51435C11.4235 6.63488 11.6773 6.69515 11.933 6.69515C12.2545 6.69515 12.512 6.59836 12.7056 6.40477L12.7056 6.40477Z" id="Path-3" fill="#A6D7A8" fill-rule="evenodd" stroke="none" />
      <path d="M12.7331 10.1736C12.0939 9.99464 11.4309 9.90515 10.7442 9.90515C10.0576 9.90515 9.39461 9.99464 8.75541 10.1736C8.1162 10.3526 7.519 10.6046 6.96381 10.9297C6.40862 11.2548 5.90456 11.6438 5.45163 12.0967C4.99871 12.5496 4.60971 13.0537 4.28463 13.6089C3.95955 14.1641 3.70752 14.7613 3.52854 15.4005C3.34957 16.0397 3.26008 16.7026 3.26008 17.3893C3.26008 18.003 3.33313 18.602 3.47923 19.1864C3.62534 19.7708 3.83536 20.326 4.10931 20.852C4.38325 21.378 4.71746 21.8656 5.11194 22.3148C5.50642 22.7641 5.95569 23.1641 6.45975 23.5147L6.40496 23.5147C6.22964 23.5147 6.07988 23.575 5.95569 23.6955C5.8315 23.8161 5.76941 23.964 5.76941 24.1393C5.76941 24.2708 5.80228 24.3804 5.86803 24.4681C5.93378 24.5557 6.01779 24.6306 6.12006 24.6927C6.22233 24.7548 6.33008 24.8077 6.44332 24.8516C6.55655 24.8954 6.6643 24.9392 6.76657 24.9831L6.75561 25.0269C6.63142 25.3483 6.52367 25.6606 6.43236 25.9638C6.34104 26.267 6.26434 26.5701 6.20224 26.8733C6.14015 27.1765 6.09267 27.4869 6.05979 27.8047C6.02692 28.1225 6.01048 28.4567 6.01048 28.8073C6.01048 29.2895 5.94839 29.6931 5.8242 30.0182C5.70001 30.3433 5.51921 30.6081 5.28179 30.8126C5.04437 31.0172 4.75034 31.1633 4.39969 31.2509C4.04904 31.3386 3.6436 31.3824 3.18337 31.3824C3.05918 31.3824 2.94047 31.3788 2.82724 31.3715C2.71401 31.3642 2.5953 31.3605 2.47112 31.3605C2.3104 31.3605 2.1716 31.4189 2.05472 31.5358C1.93784 31.6527 1.87939 31.7915 1.87939 31.9522C1.87939 32.1202 1.9214 32.2481 2.00541 32.3358C2.08942 32.4234 2.19352 32.4837 2.31771 32.5166C2.44189 32.5494 2.57521 32.5659 2.71767 32.5659L3.10667 32.5659C3.73491 32.5659 4.30107 32.4946 4.80513 32.3522C5.30918 32.2097 5.73836 31.9851 6.09267 31.6783C6.44697 31.3715 6.71909 30.9806 6.90902 30.5058C7.09896 30.031 7.19392 29.4648 7.19392 28.8073C7.19392 27.6604 7.40943 26.5573 7.84043 25.4981L7.85139 25.4652C7.90983 25.4944 7.98106 25.5291 8.06507 25.5693C8.14908 25.6095 8.23491 25.6497 8.32258 25.6898C8.41024 25.73 8.49425 25.7629 8.5746 25.7885C8.65496 25.814 8.72801 25.8268 8.79376 25.8268C8.96178 25.8268 9.10789 25.7647 9.23207 25.6405C9.35626 25.5164 9.41836 25.3702 9.41836 25.2022C9.41836 25.1 9.39279 25.005 9.34165 24.9173C9.29051 24.8297 9.22477 24.7566 9.14441 24.6982C9.67038 24.8077 10.2037 24.8625 10.7442 24.8625C11.4309 24.8625 12.0939 24.773 12.7331 24.5941C13.3723 24.4151 13.9695 24.1649 14.5247 23.8435C15.0799 23.522 15.5839 23.133 16.0369 22.6765C16.4898 22.2199 16.8788 21.7158 17.2039 21.1643C17.5289 20.6127 17.781 20.0174 17.96 19.3782C18.1389 18.739 18.2284 18.076 18.2284 17.3893C18.2284 16.7026 18.1389 16.0397 17.96 15.4005C17.781 14.7613 17.5289 14.1641 17.2039 13.6089C16.8788 13.0537 16.4898 12.5496 16.0369 12.0967C15.5839 11.6438 15.0799 11.2548 14.5247 10.9297C13.9695 10.6046 13.3723 10.3526 12.7331 10.1736L12.7331 10.1736Z" id="Path-1" fill="#90CBF9" fill-rule="evenodd" stroke="none" />
      <path d="M8.28967 11.5817C9.05671 11.2529 9.87489 11.0886 10.7442 11.0886C11.6135 11.0886 12.4299 11.2548 13.1933 11.5871C13.9567 11.9195 14.6233 12.3706 15.1931 12.9404C15.7629 13.5102 16.214 14.1768 16.5464 14.9402C16.8787 15.7036 17.0449 16.52 17.0449 17.3893C17.0449 18.2586 16.8787 19.075 16.5464 19.8384C16.214 20.6018 15.7629 21.2684 15.1931 21.8382C14.6233 22.408 13.9567 22.8591 13.1933 23.1914C12.4299 23.5238 11.6135 23.69 10.7442 23.69C9.87489 23.69 9.05854 23.5238 8.29515 23.1914C7.53175 22.8591 6.86515 22.408 6.29535 21.8382C5.72554 21.2684 5.27445 20.6018 4.94206 19.8384C4.60967 19.075 4.44348 18.2586 4.44348 17.3893C4.44348 16.52 4.60785 15.7018 4.93658 14.9347C5.26532 14.1677 5.71459 13.4993 6.28439 12.9295C6.8542 12.3597 7.52262 11.9104 8.28967 11.5817L8.28967 11.5817Z" id="Path-2" fill="#2196F3" fill-rule="evenodd" stroke="none" />
      <path d="M15.9656 16.31C16.1591 16.1164 16.2559 15.8589 16.2559 15.5375C16.2559 15.2818 16.1957 15.0279 16.0751 14.7759C15.9546 14.5239 15.7957 14.2992 15.5985 14.102C15.4012 13.9047 15.1766 13.7459 14.9246 13.6253C14.6725 13.5048 14.4187 13.4445 14.163 13.4445C13.8416 13.4445 13.5841 13.5413 13.3905 13.7349C13.1969 13.9285 13.1001 14.186 13.1001 14.5074C13.1001 14.7631 13.1604 15.017 13.2809 15.269C13.4014 15.521 13.5603 15.7457 13.7576 15.9429C13.9548 16.1401 14.1794 16.299 14.4315 16.4196C14.6835 16.5401 14.9374 16.6004 15.193 16.6004C15.5145 16.6004 15.772 16.5036 15.9656 16.31L15.9656 16.31Z" id="Path-3" fill="#90CBF9" fill-rule="evenodd" stroke="none" />
    </g>
  </g>
</svg>