<?xml version="1.0" encoding="utf-8"?>
<svg width="36px" height="36px" viewBox="0 0 36 36" version="1.1" xmlns:xlink="http://www.w3.org/1999/xlink" xmlns="http://www.w3.org/2000/svg">
  <g id="Group-7">
    <path d="M0 0L36 0L36 36L0 36L0 0Z" id="Rectangle" fill="none" fill-rule="evenodd" stroke="none" />
    <g id="Group-3" transform="translate(5 0)">
      <path d="M19.5136 5.66463C18.79 5.46679 18.0395 5.36786 17.2622 5.36786C16.4848 5.36786 15.7344 5.46678 15.0108 5.66463C14.2872 5.86248 13.6111 6.14109 12.9827 6.50045C12.3542 6.85981 11.7836 7.28983 11.2709 7.79052C10.7581 8.2912 10.3178 8.84841 9.94979 9.46215C9.58179 10.0759 9.29649 10.7361 9.09389 11.4427C8.89128 12.1493 8.78998 12.8821 8.78998 13.6412C8.78998 14.3196 8.87267 14.9818 9.03807 15.6278C9.20346 16.2739 9.44121 16.8876 9.75132 17.469C10.0614 18.0505 10.4398 18.5895 10.8863 19.0862C11.3329 19.5828 11.8415 20.0249 12.4121 20.4126L12.35 20.4126C12.1516 20.4126 11.982 20.4792 11.8415 20.6124C11.7009 20.7457 11.6306 20.9092 11.6306 21.103C11.6306 21.2484 11.6678 21.3695 11.7422 21.4664C11.8166 21.5633 11.9117 21.6461 12.0275 21.7147C12.1433 21.7834 12.2653 21.8419 12.3934 21.8904C12.5216 21.9388 12.6436 21.9873 12.7594 22.0358L12.747 22.0842C12.6064 22.4395 12.4844 22.7848 12.381 23.1199C12.2777 23.455 12.1908 23.7902 12.1206 24.1253C12.0503 24.4604 11.9965 24.8036 11.9593 25.1549C11.9221 25.5062 11.9035 25.8757 11.9035 26.2633C11.9035 26.7963 13.2431 26.9901 13.2431 26.2633C13.2431 24.9954 13.4871 23.776 13.975 22.6051L13.9874 22.5687C14.0536 22.601 14.1342 22.6394 14.2293 22.6838C14.3244 22.7282 14.4216 22.7726 14.5208 22.8171C14.62 22.8615 14.7151 22.8978 14.8061 22.9261C14.8971 22.9543 14.9798 22.9685 15.0542 22.9685C15.2444 22.9685 15.4098 22.8998 15.5504 22.7625C15.6909 22.6253 15.7612 22.4638 15.7612 22.278C15.7612 22.165 15.7323 22.06 15.6744 21.9631C15.6165 21.8662 15.5421 21.7854 15.4511 21.7208C16.0465 21.8419 16.6502 21.9025 17.2622 21.9025C18.0395 21.9025 18.79 21.8036 19.5136 21.6057C20.2371 21.4079 20.9132 21.1313 21.5417 20.776C22.1702 20.4206 22.7408 19.9906 23.2535 19.4859C23.7662 18.9812 24.2065 18.424 24.5745 17.8143C24.9425 17.2046 25.2278 16.5464 25.4304 15.8398C25.633 15.1332 25.7343 14.4003 25.7343 13.6412C25.7343 12.8821 25.633 12.1493 25.4304 11.4427C25.2278 10.7361 24.9425 10.0759 24.5745 9.46215C24.2065 8.84841 23.7662 8.2912 23.2535 7.79052C22.7408 7.28983 22.1702 6.85981 21.5417 6.50045C20.9132 6.14109 20.2371 5.86248 19.5136 5.66463L19.5136 5.66463Z" id="Path-1" fill="#000000" fill-rule="evenodd" stroke="none" />
      <path d="M14.4836 7.22125C15.3519 6.85785 16.2781 6.67615 17.2622 6.67615C18.2462 6.67615 19.1704 6.85987 20.0345 7.2273C20.8987 7.59474 21.6533 8.0934 22.2983 8.72329C22.9434 9.35318 23.454 10.0901 23.8303 10.934C24.2065 11.7779 24.3947 12.6803 24.3947 13.6413C24.3947 14.6023 24.2065 15.5047 23.8303 16.3486C23.454 17.1925 22.9434 17.9294 22.2983 18.5593C21.6533 19.1892 20.8987 19.6878 20.0345 20.0553C19.1704 20.4227 18.2462 20.6064 17.2622 20.6064C16.2781 20.6064 15.3539 20.4227 14.4898 20.0553C13.6256 19.6878 12.871 19.1892 12.226 18.5593C11.581 17.9294 11.0703 17.1925 10.694 16.3486C10.3178 15.5047 10.1296 14.6023 10.1296 13.6413C10.1296 12.6803 10.3157 11.7758 10.6878 10.9279C11.06 10.08 11.5685 9.34107 12.2136 8.71118C12.8586 8.08129 13.6153 7.58465 14.4836 7.22125L14.4836 7.22125Z" id="Path-2" fill="#F44336" fill-rule="evenodd" stroke="none" />
      <path d="M23.1728 12.448C23.392 12.234 23.5015 11.9494 23.5015 11.594C23.5015 11.3114 23.4333 11.0308 23.2969 10.7522C23.1604 10.4736 22.9806 10.2252 22.7573 10.0072C22.534 9.78915 22.2797 9.61351 21.9944 9.48026C21.7091 9.34702 21.4217 9.2804 21.1323 9.2804C20.7684 9.2804 20.4769 9.3874 20.2578 9.6014C20.0386 9.8154 19.9291 10.1001 19.9291 10.4554C19.9291 10.738 19.9973 11.0187 20.1337 11.2973C20.2702 11.5759 20.4501 11.8242 20.6733 12.0422C20.8966 12.2603 21.1509 12.4359 21.4362 12.5692C21.7215 12.7024 22.0089 12.769 22.2983 12.769C22.6622 12.769 22.9537 12.662 23.1728 12.448L23.1728 12.448Z" id="Path-3" fill="#FAA19B" fill-rule="evenodd" stroke="none" />
      <path d="M10.7236 0.296776C10 0.0989278 9.24953 2.62875e-06 8.47219 0C7.69485 0 6.94438 0.0989252 6.2208 0.296776C5.49721 0.494626 4.82117 0.773232 4.19268 1.13259C3.56419 1.49195 2.99359 1.92198 2.48088 2.42266C1.96816 2.92334 1.52781 3.48055 1.15981 4.09429C0.791813 4.70803 0.506512 5.36821 0.303908 6.07481C0.101303 6.78142 3.15614e-08 7.51428 3.15614e-08 8.27338C3.15614e-08 8.95172 0.082696 9.61391 0.248088 10.26C0.41348 10.906 0.65123 11.5197 0.96134 12.1012C1.27145 12.6826 1.64978 13.2217 2.09634 13.7183C2.5429 14.2149 3.05148 14.6571 3.62208 15.0447L3.56006 15.0447C3.36159 15.0447 3.19206 15.1113 3.05148 15.2446C2.91089 15.3778 2.8406 15.5414 2.8406 15.7352C2.8406 15.8805 2.87782 16.0017 2.95224 16.0986C3.02667 16.1955 3.12177 16.2782 3.23754 16.3469C3.35332 16.4155 3.47529 16.4741 3.60347 16.5225C3.73165 16.571 3.85363 16.6194 3.9694 16.6679L5.19743 17.2009C5.26359 17.2332 5.34422 17.2715 5.43932 17.3159C5.53442 17.3604 5.63159 17.4048 5.73082 17.4492C5.83006 17.4936 5.92516 17.5299 6.01612 17.5582C6.10709 17.5865 6.18979 17.6006 6.26421 17.6006C6.45441 17.6006 6.6198 17.532 6.76039 17.3947C6.90097 17.2574 6.97126 17.0959 6.97126 16.9102C6.97126 16.7971 6.94232 16.6921 6.88443 16.5952C6.82654 16.4983 6.75212 16.4175 6.66115 16.3529C7.25656 16.4741 7.86024 16.5346 8.47219 16.5346C9.24953 16.5346 10 16.4357 10.7236 16.2379C11.4472 16.04 12.1232 15.7634 12.7517 15.4081C13.3802 15.0528 13.9508 14.6228 14.4635 14.118C14.9762 13.6133 15.4166 13.0561 15.7846 12.4464C16.1526 11.8367 16.4379 11.1785 16.6405 10.4719C16.8431 9.76533 16.9444 9.03248 16.9444 8.27338C16.9444 7.51428 16.8431 6.78142 16.6405 6.07481C16.4379 5.36821 16.1526 4.70803 15.7846 4.09429C15.4166 3.48055 14.9762 2.92334 14.4635 2.42266C13.9508 1.92198 13.3802 1.49195 12.7517 1.13259C12.1232 0.773232 11.4472 0.494626 10.7236 0.296776L10.7236 0.296776Z" id="Path-1" fill="#000000" fill-rule="evenodd" stroke="none" />
      <path d="M5.69366 1.85333C6.56196 1.48993 7.48816 1.30823 8.47224 1.30823C9.45632 1.30823 10.3804 1.49195 11.2446 1.85938C12.1088 2.22682 12.8634 2.72548 13.5084 3.35537C14.1534 3.98526 14.6641 4.72216 15.0404 5.56605C15.4166 6.40994 15.6048 7.31238 15.6048 8.27337C15.6048 9.23436 15.4166 10.1368 15.0404 10.9807C14.6641 11.8246 14.1534 12.5615 13.5084 13.1914C12.8634 13.8213 12.1088 14.3199 11.2446 14.6874C10.3804 15.0548 9.45632 15.2385 8.47224 15.2385C7.48816 15.2385 6.56403 15.0548 5.69986 14.6874C4.83569 14.3199 4.08109 13.8213 3.43606 13.1914C2.79103 12.5615 2.28039 11.8246 1.90412 10.9807C1.52785 10.1368 1.33972 9.23436 1.33972 8.27337C1.33972 7.31238 1.52579 6.40792 1.89792 5.55999C2.27005 4.71206 2.77863 3.97315 3.42366 3.34326C4.06868 2.71337 4.82535 2.21673 5.69366 1.85333L5.69366 1.85333Z" id="Path-2" fill="#4CAF50" fill-rule="evenodd" stroke="none" />
      <path d="M14.3828 7.08016C14.602 6.86616 14.7116 6.5815 14.7116 6.22618C14.7116 5.94353 14.6433 5.66291 14.5069 5.3843C14.3704 5.1057 14.1906 4.85737 13.9673 4.63933C13.744 4.42129 13.4897 4.24565 13.2044 4.11241C12.9191 3.97916 12.6318 3.91254 12.3423 3.91254C11.9785 3.91254 11.687 4.01954 11.4678 4.23354C11.2487 4.44754 11.1391 4.7322 11.1391 5.08753C11.1391 5.37017 11.2073 5.65079 11.3438 5.9294C11.4802 6.208 11.6601 6.45633 11.8834 6.67437C12.1066 6.89241 12.3609 7.06805 12.6462 7.20129C12.9315 7.33454 13.2189 7.40116 13.5083 7.40116C13.8722 7.40116 14.1637 7.29416 14.3828 7.08016L14.3828 7.08016Z" id="Path-3" fill="#A6D7A8" fill-rule="evenodd" stroke="none" />
      <path d="M14.414 11.2465C13.6904 11.0486 12.9399 10.9497 12.1626 10.9497C11.3852 10.9497 10.6348 11.0486 9.91119 11.2465C9.1876 11.4443 8.51156 11.7229 7.88307 12.0823C7.25458 12.4417 6.68398 12.8717 6.17127 13.3724C5.65855 13.873 5.2182 14.4303 4.8502 15.044C4.48221 15.6577 4.1969 16.3179 3.9943 17.0245C3.7917 17.7311 3.69039 18.464 3.69039 19.2231C3.69039 19.9014 3.77309 20.5636 3.93848 21.2097C4.10387 21.8557 4.34162 22.4694 4.65173 23.0509C4.96184 23.6323 5.34017 24.1714 5.78673 24.668C6.23329 25.1647 6.74187 25.6068 7.31247 25.9944L7.25045 25.9944C7.05198 25.9944 6.88245 26.061 6.74187 26.1943C6.60129 26.3275 6.53099 26.4911 6.53099 26.6849C6.53099 26.8302 6.56821 26.9514 6.64263 27.0483C6.71706 27.1452 6.81216 27.228 6.92793 27.2966C7.04371 27.3652 7.16569 27.4238 7.29386 27.4722C7.42204 27.5207 7.54402 27.5691 7.65979 27.6176L7.64739 27.6661C7.50681 28.0214 7.38483 28.3666 7.28146 28.7017C7.17809 29.0369 7.09126 29.372 7.02097 29.7071C6.95068 30.0423 6.89692 30.3855 6.85971 30.7368C6.8225 31.0881 6.80389 31.4575 6.80389 31.8451C6.80389 32.3781 6.7336 32.8243 6.59302 33.1837C6.45243 33.543 6.24776 33.8358 5.979 34.0619C5.71024 34.288 5.37739 34.4495 4.98045 34.5464C4.58351 34.6433 4.12455 34.6918 3.60356 34.6918C3.46298 34.6918 3.3286 34.6877 3.20042 34.6796C3.07224 34.6716 2.93786 34.6675 2.79728 34.6675C2.61535 34.6675 2.45822 34.7321 2.32591 34.8613C2.1936 34.9906 2.12744 35.144 2.12744 35.3217C2.12744 35.5074 2.17499 35.6487 2.27009 35.7456C2.36519 35.8425 2.48303 35.9091 2.62362 35.9455C2.7642 35.9818 2.91512 36 3.07638 36L3.51673 36C4.22792 36 4.86881 35.9213 5.43941 35.7638C6.01001 35.6063 6.49585 35.358 6.89692 35.0188C7.298 34.6796 7.60604 34.2476 7.82105 33.7227C8.03606 33.1978 8.14356 32.5719 8.14356 31.8451C8.14356 30.5773 8.38752 29.3579 8.87542 28.1869L8.88783 28.1506C8.95398 28.1829 9.03461 28.2212 9.12971 28.2657C9.22481 28.3101 9.32198 28.3545 9.42121 28.3989C9.52045 28.4433 9.61555 28.4797 9.70651 28.5079C9.79748 28.5362 9.88018 28.5503 9.9546 28.5503C10.1448 28.5503 10.3102 28.4817 10.4508 28.3444C10.5914 28.2071 10.6617 28.0456 10.6617 27.8599C10.6617 27.7468 10.6327 27.6418 10.5748 27.5449C10.5169 27.448 10.4425 27.3673 10.3515 27.3027C10.947 27.4238 11.5506 27.4844 12.1626 27.4844C12.9399 27.4844 13.6904 27.3854 14.414 27.1876C15.1376 26.9897 15.8136 26.7131 16.4421 26.3578C17.0706 26.0025 17.6412 25.5725 18.1539 25.0677C18.6666 24.563 19.107 24.0058 19.475 23.3961C19.843 22.7864 20.1283 22.1283 20.3309 21.4216C20.5335 20.715 20.6348 19.9822 20.6348 19.2231C20.6348 18.464 20.5335 17.7311 20.3309 17.0245C20.1283 16.3179 19.843 15.6577 19.475 15.044C19.107 14.4303 18.6666 13.873 18.1539 13.3724C17.6412 12.8717 17.0706 12.4417 16.4421 12.0823C15.8136 11.7229 15.1376 11.4443 14.414 11.2465L14.414 11.2465Z" id="Path-1" fill="#000000" fill-rule="evenodd" stroke="none" />
      <path d="M9.38403 12.8029C10.2523 12.4395 11.1785 12.2578 12.1626 12.2578C13.1467 12.2578 14.0708 12.4415 14.935 12.809C15.7992 13.1764 16.5538 13.6751 17.1988 14.305C17.8438 14.9348 18.3545 15.6717 18.7307 16.5156C19.107 17.3595 19.2951 18.262 19.2951 19.223C19.2951 20.1839 19.107 21.0864 18.7307 21.9303C18.3545 22.7742 17.8438 23.5111 17.1988 24.1409C16.5538 24.7708 15.7992 25.2695 14.935 25.6369C14.0708 26.0044 13.1467 26.1881 12.1626 26.1881C11.1785 26.1881 10.2544 26.0044 9.39023 25.6369C8.52606 25.2695 7.77146 24.7708 7.12643 24.1409C6.4814 23.5111 5.97076 22.7742 5.59449 21.9303C5.21822 21.0864 5.03009 20.1839 5.03009 19.223C5.03009 18.262 5.21616 17.3575 5.58829 16.5096C5.96042 15.6616 6.469 14.9227 7.11403 14.2928C7.75905 13.663 8.51572 13.1663 9.38403 12.8029L9.38403 12.8029Z" id="Path-2" fill="#2196F3" fill-rule="evenodd" stroke="none" />
      <path d="M18.0733 18.0299C18.2925 17.8159 18.402 17.5312 18.402 17.1759C18.402 16.8932 18.3338 16.6126 18.1974 16.334C18.0609 16.0554 17.8811 15.8071 17.6578 15.589C17.4345 15.371 17.1802 15.1954 16.8949 15.0621C16.6096 14.9289 16.3222 14.8622 16.0328 14.8622C15.669 14.8622 15.3774 14.9692 15.1583 15.1832C14.9392 15.3972 14.8296 15.6819 14.8296 16.0372C14.8296 16.3199 14.8978 16.6005 15.0343 16.8791C15.1707 17.1577 15.3506 17.406 15.5739 17.6241C15.7971 17.8421 16.0514 18.0178 16.3367 18.151C16.622 18.2843 16.9094 18.3509 17.1988 18.3509C17.5627 18.3509 17.8542 18.2439 18.0733 18.0299L18.0733 18.0299Z" id="Path-3" fill="#90CBF9" fill-rule="evenodd" stroke="none" />
    </g>
  </g>
</svg>